<svg xmlns="http://www.w3.org/2000/svg" viewBox="0 0 800 890" role="img" data-doc-tier="A"><title>Quillframe 系统架构</title><desc>Story Loom 系统图：项目权威、模型语义契约、确定性运行外壳以及证据演化彼此分离。</desc><style>
text{font-family:"Noto Sans CJK SC","Noto Sans",-apple-system,BlinkMacSystemFont,"Segoe UI",Arial,sans-serif;fill:#241D2B}
.eyebrow{font-size:22px;font-weight:800;letter-spacing:1.6px;fill:#62556D}
.title{font-size:34px;font-weight:850;letter-spacing:-.4px}
.subtitle{font-size:23px;font-weight:500;fill:#62556D}
.section{font-size:24px;font-weight:850}
.lead{font-size:22px;font-weight:750}
.body{font-size:22px;font-weight:650}
.small{font-size:21px;font-weight:500;fill:#62556D}
.pill{font-size:20px;font-weight:800}
.num{font-size:21px;font-weight:850}
</style><rect width="800" height="890" rx="28" fill="#FFFDFC"/><rect x="1" y="1" width="798" height="888" rx="27" fill="none" stroke="#E2DAE8" stroke-width="2"/><text x="42" y="54" class="eyebrow" text-anchor="start">系统总览</text><text x="42" y="94" class="title" text-anchor="start">故事权威与运行智能</text><text x="42" y="130" class="title" text-anchor="start">始终彼此分离</text><text x="42" y="164" class="subtitle" text-anchor="start" data-max-width="720">模型理解小说，代码约束状态，项目拥有故事事实。</text><rect x="42" y="202" width="344" height="238" rx="22" fill="#DDEFF8" stroke="#4F8FBA" stroke-width="2.2"/><rect x="414" y="202" width="344" height="238" rx="22" fill="#F9DDE9" stroke="#D6679A" stroke-width="2.2"/><rect x="42" y="478" width="344" height="238" rx="22" fill="#E7E1F8" stroke="#796BC4" stroke-width="2.2"/><rect x="414" y="478" width="344" height="238" rx="22" fill="#F9EDCF" stroke="#BE892F" stroke-width="2.2"/><text x="66" y="242" class="section" text-anchor="start">项目权威</text><text x="66" y="278" class="lead" text-anchor="start">拥有故事事实</text><line x1="66" y1="296" x2="360" y2="296" stroke="#4F8FBA" stroke-width="1.5" stroke-linecap="round"/><text x="66" y="330" class="body" text-anchor="start">正典与当前状态</text><text x="66" y="364" class="body" text-anchor="start">计划与项目画像</text><text x="66" y="398" class="body" text-anchor="start">研究资料与稿件</text><rect x="66" y="418" width="250" height="42" rx="21" fill="#FFFDFC" stroke="#4F8FBA" stroke-width="1.7"/><text x="191.0" y="446" class="pill" text-anchor="middle">已接受状态不等于计划</text><text x="438" y="242" class="section" text-anchor="start">语义契约层</text><text x="438" y="278" class="lead" text-anchor="start">语义判断由模型负责</text><line x1="438" y1="296" x2="732" y2="296" stroke="#D6679A" stroke-width="1.5" stroke-linecap="round"/><text x="438" y="330" class="body" text-anchor="start">小目录；按需加载</text><text x="438" y="364" class="body" text-anchor="start">故事与人物模拟</text><text x="438" y="398" class="body" text-anchor="start">质量与长程一致性</text><text x="438" y="432" class="body" text-anchor="start">学习、研究与场景分叉</text><text x="66" y="518" class="section" text-anchor="start">确定性运行外壳</text><text x="66" y="554" class="lead" text-anchor="start">约束执行过程</text><line x1="66" y1="572" x2="360" y2="572" stroke="#796BC4" stroke-width="1.5" stroke-linecap="round"/><rect x="66" y="592" width="250" height="42" rx="21" fill="#FFFDFC" stroke="#796BC4" stroke-width="1.7"/><text x="191.0" y="620" class="pill" text-anchor="middle">会话 + 检查点</text><rect x="66" y="642" width="250" height="42" rx="21" fill="#FFFDFC" stroke="#796BC4" stroke-width="1.7"/><text x="191.0" y="670" class="pill" text-anchor="middle">能力 + 路由</text><rect x="66" y="692" width="250" height="42" rx="21" fill="#FFFDFC" stroke="#796BC4" stroke-width="1.7"/><text x="191.0" y="720" class="pill" text-anchor="middle">指纹 + 结果回执</text><text x="438" y="518" class="section" text-anchor="start">证据与演化</text><text x="438" y="554" class="lead" text-anchor="start">证据的权威始终受限</text><line x1="438" y1="572" x2="732" y2="572" stroke="#BE892F" stroke-width="1.5" stroke-linecap="round"/><text x="438" y="606" class="body" text-anchor="start">质量发现与读者预期</text><text x="438" y="640" class="body" text-anchor="start">语料证据与评测</text><text x="438" y="674" class="body" text-anchor="start">学习假设与候选稿历史</text><rect x="438" y="694" width="250" height="42" rx="21" fill="#FFFDFC" stroke="#BE892F" stroke-width="1.7"/><text x="563.0" y="722" class="pill" text-anchor="middle">证据本身不是正典</text><text x="42" y="790" class="eyebrow" text-anchor="start">贯穿全程的故事线</text><line x1="42" y1="820" x2="758" y2="820" stroke="#62556D" stroke-width="3" stroke-linecap="round"/><circle cx="96" cy="820" r="8" fill="#4F8FBA" stroke="none" stroke-width="0"/><circle cx="246" cy="820" r="8" fill="#D6679A" stroke="none" stroke-width="0"/><circle cx="398" cy="820" r="8" fill="#796BC4" stroke="none" stroke-width="0"/><circle cx="552" cy="820" r="8" fill="#796BC4" stroke="none" stroke-width="0"/><circle cx="704" cy="820" r="8" fill="#4D9B7D" stroke="none" stroke-width="0"/><text x="96" y="854" class="small" text-anchor="middle">上下文</text><text x="246" y="854" class="small" text-anchor="middle">契约</text><text x="398" y="854" class="small" text-anchor="middle">模型</text><text x="552" y="854" class="small" text-anchor="middle">校验</text><text x="704" y="854" class="small" text-anchor="middle">门槛</text></svg>